<svg width="25" height="25" viewBox="0 0 25 25" fill="none" xmlns="http://www.w3.org/2000/svg">
<path d="M17.3685 16.3904C17.8357 15.6112 18.1083 14.731 18.1631 13.8242C18.218 12.9174 18.0536 12.0107 17.6838 11.1809C17.314 10.3511 16.7497 9.62263 16.0387 9.05715C15.3277 8.49167 14.4909 8.10583 13.5992 7.93229C11.2902 7.46467 8.86539 8.55046 7.64916 10.559C7.12345 11.4395 6.84288 12.4446 6.83654 13.4701C6.83019 14.4956 7.09831 15.5041 7.61308 16.391H17.3685V16.3904Z" fill="url(#paint0_linear_833_5633)"/>
<path d="M18.173 13.5C18.1632 14.5174 17.8857 15.5143 17.3682 16.3904H18.5358C18.973 15.4889 19.2047 14.5018 19.2144 13.5C19.2185 14.1709 18.1778 14.1695 18.173 13.5Z" fill="#192A3E"/>
<path d="M7.64807 10.559C8.86499 8.55047 11.2891 7.46468 13.5981 7.9323C14.8821 8.19772 16.0365 8.89504 16.8689 9.90811C17.7013 10.9212 18.1616 12.1889 18.1729 13.5C18.1778 12.8298 19.2185 12.8305 19.2136 13.5C19.2018 12.1207 18.7707 10.7777 17.9776 9.64922C17.1845 8.52071 16.067 7.66009 14.7734 7.18161C12.1529 6.22278 9.0877 7.06922 7.32754 9.22345C5.68394 11.2355 5.33357 14.0627 6.44017 16.3904H7.6113C7.09676 15.5034 6.82884 14.495 6.8353 13.4697C6.84177 12.4443 7.12239 11.4394 7.64807 10.559Z" fill="#192A3E"/>
<path d="M18.1731 13.5002C18.178 14.1697 19.2186 14.1711 19.2138 13.5002C19.2089 12.8293 18.178 12.8279 18.1731 13.5002Z" fill="#192A3E"/>
<path d="M11.9797 2.50265V4.83728C11.9797 5.50679 13.0204 5.50818 13.0204 4.83728V2.50265C13.0204 1.83314 11.9797 1.83175 11.9797 2.50265Z" fill="#192A3E"/>
<path d="M6.55206 4.23856L7.71972 6.26097C8.05483 6.84099 8.95398 6.31717 8.62166 5.73577L7.454 3.71336C7.11612 3.13404 6.21627 3.65716 6.55206 4.23856Z" fill="#192A3E"/>
<path d="M3.23867 7.55491C2.65797 7.21912 2.13276 8.11828 2.71347 8.45685L4.73588 9.6245C5.31728 9.9603 5.84179 9.06114 5.26109 8.72257L3.23867 7.55491Z" fill="#192A3E"/>
<path d="M1.50265 14.0203H3.83728C4.50679 14.0203 4.50818 12.9796 3.83728 12.9796H1.50265C0.833142 12.9796 0.831755 14.0203 1.50265 14.0203Z" fill="#192A3E"/>
<path d="M23.4972 12.9796H21.1626C20.4931 12.9796 20.4917 14.0203 21.1626 14.0203H23.4972C24.1667 14.0203 24.1681 12.9796 23.4972 12.9796Z" fill="#192A3E"/>
<path d="M21.7616 7.55498L19.7392 8.72263C19.1592 9.05774 19.683 9.9569 20.2644 9.62457L22.2868 8.45691C22.8668 8.11626 22.343 7.2164 21.7616 7.55498Z" fill="#192A3E"/>
<path d="M17.5493 3.71341L16.3851 5.73582C16.0493 6.31722 16.9485 6.84173 17.287 6.26102L18.4547 4.23861C18.7836 3.6579 17.8844 3.13339 17.5493 3.71341Z" fill="#192A3E"/>
<path d="M23.4148 16.3904H18.5361C18.4505 16.568 18.358 16.7414 18.2585 16.9107H21.0129V17.4311H23.4148C24.0864 17.4311 24.0864 16.3904 23.4148 16.3904Z" fill="#192A3E"/>
<path d="M1.58517 16.9107H6.71926C6.61843 16.7405 6.52592 16.5671 6.44174 16.3904H1.58517C0.915662 16.3904 0.914274 17.4311 1.58517 17.4311H3.98709V16.9107H1.58517Z" fill="#192A3E"/>
<path d="M17.3682 16.3904H7.61206C7.71745 16.5704 7.83328 16.7442 7.95896 16.9107H17.0199C17.1453 16.7437 17.2616 16.57 17.3682 16.3904Z" fill="#192A3E"/>
<path d="M7.96168 16.9107C7.836 16.7442 7.72017 16.5704 7.61478 16.3904H6.44019C6.5239 16.5671 6.61641 16.7405 6.7177 16.9107H7.96168Z" fill="#192A3E"/>
<path d="M17.022 16.9107H18.2583C18.3587 16.7414 18.4512 16.568 18.5358 16.3904H17.3682C17.2622 16.5699 17.1466 16.7436 17.022 16.9107Z" fill="#192A3E"/>
<path d="M6.75 16.9668C6.7389 16.9481 6.72849 16.9294 6.71739 16.9106H3.9873V17.431H7.05943C6.94981 17.2818 6.84713 17.1292 6.75 16.9668Z" fill="#192A3E"/>
<path d="M8.41313 17.431H16.5846C16.7407 17.2663 16.8869 17.0926 17.0224 16.9106H7.96216C8.00471 16.9666 8.04842 17.0217 8.09329 17.0758C8.19504 17.1997 8.30166 17.3181 8.41313 17.431Z" fill="#192A3E"/>
<path d="M18.2584 16.9106C18.1525 17.0892 18.0389 17.2626 17.9177 17.431H21.0127V16.9106H18.2584Z" fill="#192A3E"/>
<path d="M16.5842 17.431H17.9115C18.0326 17.2626 18.1462 17.0892 18.2521 16.9106H17.022C16.8865 17.0926 16.7403 17.2663 16.5842 17.431Z" fill="#192A3E"/>
<path d="M8.09263 17.0758C8.04638 17.0217 8.00267 16.9666 7.9615 16.9106H6.71753C6.72863 16.9294 6.73904 16.9481 6.75014 16.9668C6.84727 17.1271 6.95065 17.2818 7.05957 17.431H8.41316C8.30216 17.3177 8.19531 17.1993 8.09263 17.0758Z" fill="#192A3E"/>
<path d="M21.0129 19.6964V20.2167H21.1829C21.8524 20.2167 21.8538 19.176 21.1829 19.176H21.0129V19.6964Z" fill="#192A3E"/>
<path d="M3.98709 19.6964V19.176H3.81711C3.1476 19.176 3.14621 20.2167 3.81711 20.2167H3.98709V19.6964Z" fill="#192A3E"/>
<path d="M9.23145 20.0613L9.39102 20.2139H9.59916L9.23145 20.0613Z" fill="#192A3E"/>
<path d="M16.1014 19.16C15.7819 19.3679 15.4448 19.5474 15.094 19.6963H21.0128V19.176H16.8992C16.6356 19.1732 16.3685 19.1635 16.1014 19.16Z" fill="#192A3E"/>
<path d="M15.3999 20.2139H15.608L15.7676 20.0613L15.3999 20.2139Z" fill="#192A3E"/>
<path d="M15.4002 19.6963L12.5002 22.4715L9.60011 19.6963H3.9873V20.2166H9.39128L9.2317 20.064L9.59941 20.2166H9.39128L12.1325 22.8399C12.2313 22.9351 12.3633 22.9882 12.5005 22.9882C12.6378 22.9882 12.7697 22.9351 12.8686 22.8399L15.6098 20.2166H15.4016L15.7693 20.064L15.6098 20.2166H21.013V19.6963H15.4002Z" fill="#192A3E"/>
<path d="M9.60011 19.6963H9.95464C9.58806 19.5466 9.23521 19.3653 8.90007 19.1544C8.73495 19.1641 8.57954 19.1759 8.45396 19.1759H3.9873V19.6963H9.60011Z" fill="#192A3E"/>
<path d="M15.3999 19.1732C15.0995 19.1941 14.8983 19.4508 14.6943 19.6492L14.6506 19.6964H15.0967C15.4475 19.5483 15.7846 19.3698 16.1041 19.1628C15.8669 19.1566 15.6317 19.1573 15.3999 19.1732Z" fill="#192A3E"/>
<path d="M9.97806 19.3348C9.73315 19.1225 9.28912 19.1267 8.8999 19.1509C9.23504 19.3618 9.5879 19.5431 9.95447 19.6928H10.3805C10.2473 19.5721 10.1131 19.4527 9.97806 19.3348Z" fill="#192A3E"/>
<path d="M12.8675 22.1009C12.7449 21.9839 12.6231 21.8659 12.5019 21.7471L12.1321 22.1009H12.8675Z" fill="#192A3E"/>
<path d="M13.7816 20.5226L12.5002 21.7464C12.6218 21.8653 12.7437 21.9832 12.8658 22.1003H12.1325L12.5022 21.7464C11.8834 21.1421 11.2721 20.5226 10.6394 19.9321C10.4071 19.8647 10.1785 19.7851 9.95463 19.6935H9.6001L12.5002 22.4714L15.4002 19.6963H15.0943C14.8626 19.7946 14.6254 19.8791 14.3838 19.9495L13.7816 20.5226Z" fill="#192A3E"/>
<path d="M14.3835 19.9461C14.6251 19.8768 14.8623 19.7934 15.094 19.6963H14.6507L14.3835 19.9461Z" fill="#192A3E"/>
<path d="M10.3806 19.6963H9.95459C10.1785 19.7879 10.4071 19.8675 10.6394 19.935C10.5533 19.8531 10.4671 19.7735 10.3806 19.6963Z" fill="#192A3E"/>
<path d="M15.3999 21.9559C14.7304 21.9559 14.729 22.9966 15.3999 22.9966H19.1949C19.8644 22.9966 19.8658 21.9559 19.1949 21.9559H15.3999Z" fill="#192A3E"/>
<path d="M9.59996 21.9559H5.8049C5.13539 21.9559 5.134 22.9966 5.8049 22.9966H9.59996C10.2695 22.9966 10.2702 21.9559 9.59996 21.9559Z" fill="#192A3E"/>
<defs>
<linearGradient id="paint0_linear_833_5633" x1="12.505" y1="7.82446" x2="12.505" y2="16.391" gradientUnits="userSpaceOnUse">
<stop stop-color="#F8B62D"/>
<stop offset="1" stop-color="#F88E2D"/>
</linearGradient>
</defs>
</svg>
